{
 "cells": [
  {
   "cell_type": "code",
   "execution_count": 1,
   "metadata": {},
   "outputs": [],
   "source": [
    "import time\n",
    "import os\n",
    "import subprocess\n",
    "import cv2\n",
    "import moviepy\n",
    "from skimage.metrics import structural_similarity as ssim\n",
    "from PIL import Image\n",
    "import pandas as pd\n",
    "import numpy as np\n",
    "import matplotlib.pyplot as plt"
   ]
  },
  {
   "cell_type": "markdown",
   "metadata": {},
   "source": [
    "# Recording Video with a webcam"
   ]
  },
  {
   "cell_type": "code",
   "execution_count": 2,
   "metadata": {},
   "outputs": [],
   "source": [
    "def capture_video(folder_name, delay_s=3, video_duration_s = 5):\n",
    "    folder_path = f\"../data/videos/{folder_name}\"\n",
    "    os.makedirs(folder_path, exist_ok=True)\n",
    "\n",
    "    print(\"\\nTaking video in...\")\n",
    "    while delay_s > 0:\n",
    "        print(f\"{delay_s}...\")\n",
    "        time.sleep(1)\n",
    "        delay_s -= 1\n",
    "\n",
    "    raw_video_path = f\"{folder_path}/i420.avi\"\n",
    "    command = f\"ffmpeg -y -f v4l2 -framerate 30 -i /dev/video0 -t {video_duration_s} {raw_video_path}\"\n",
    "    subprocess.run(command, shell=True)\n",
    "\n",
    "    formats = {\n",
    "        \"mp4.mp4\": \"libx264\",   # MP4 format\n",
    "        \"divx.avi\": \"mpeg4\",    # DivX format\n",
    "        \"flv.flv\": \"flv\",       # FLV format\n",
    "        \"xvid.avi\": \"libxvid\"   # Xvid format\n",
    "    }\n",
    "\n",
    "    for filename, codec in formats.items():\n",
    "        output_path = f\"{folder_path}/{filename}\"\n",
    "        command = f\"ffmpeg -i {raw_video_path} -c:v {codec} {output_path}\"\n",
    "        subprocess.run(command, shell=True)\n"
   ]
  },
  {
   "cell_type": "code",
   "execution_count": 3,
   "metadata": {},
   "outputs": [
    {
     "name": "stdout",
     "output_type": "stream",
     "text": [
      "\n",
      "Taking video in...\n",
      "3...\n",
      "2...\n",
      "1...\n"
     ]
    },
    {
     "name": "stderr",
     "output_type": "stream",
     "text": [
      "ffmpeg version n7.1 Copyright (c) 2000-2024 the FFmpeg developers\n",
      "  built with gcc 14.2.1 (GCC) 20240910\n",
      "  configuration: --prefix=/usr --disable-debug --disable-static --disable-stripping --enable-amf --enable-avisynth --enable-cuda-llvm --enable-lto --enable-fontconfig --enable-frei0r --enable-gmp --enable-gnutls --enable-gpl --enable-ladspa --enable-libaom --enable-libass --enable-libbluray --enable-libbs2b --enable-libdav1d --enable-libdrm --enable-libdvdnav --enable-libdvdread --enable-libfreetype --enable-libfribidi --enable-libglslang --enable-libgsm --enable-libharfbuzz --enable-libiec61883 --enable-libjack --enable-libjxl --enable-libmodplug --enable-libmp3lame --enable-libopencore_amrnb --enable-libopencore_amrwb --enable-libopenjpeg --enable-libopenmpt --enable-libopus --enable-libplacebo --enable-libpulse --enable-librav1e --enable-librsvg --enable-librubberband --enable-libsnappy --enable-libsoxr --enable-libspeex --enable-libsrt --enable-libssh --enable-libsvtav1 --enable-libtheora --enable-libv4l2 --enable-libvidstab --enable-libvmaf --enable-libvorbis --enable-libvpl --enable-libvpx --enable-libwebp --enable-libx264 --enable-libx265 --enable-libxcb --enable-libxml2 --enable-libxvid --enable-libzimg --enable-libzmq --enable-nvdec --enable-nvenc --enable-opencl --enable-opengl --enable-shared --enable-vapoursynth --enable-version3 --enable-vulkan\n",
      "  libavutil      59. 39.100 / 59. 39.100\n",
      "  libavcodec     61. 19.100 / 61. 19.100\n",
      "  libavformat    61.  7.100 / 61.  7.100\n",
      "  libavdevice    61.  3.100 / 61.  3.100\n",
      "  libavfilter    10.  4.100 / 10.  4.100\n",
      "  libswscale      8.  3.100 /  8.  3.100\n",
      "  libswresample   5.  3.100 /  5.  3.100\n",
      "  libpostproc    58.  3.100 / 58.  3.100\n",
      "Input #0, video4linux2,v4l2, from '/dev/video0':\n",
      "  Duration: N/A, start: 56.093612, bitrate: 110592 kb/s\n",
      "  Stream #0:0: Video: rawvideo (YUY2 / 0x32595559), yuyv422, 640x360, 110592 kb/s, 30 fps, 30 tbr, 1000k tbn\n",
      "Stream mapping:\n",
      "  Stream #0:0 -> #0:0 (rawvideo (native) -> mpeg4 (native))\n",
      "Press [q] to stop, [?] for help\n",
      "Output #0, avi, to '../data/videos/test_1/i420.avi':\n",
      "  Metadata:\n",
      "    ISFT            : Lavf61.7.100\n",
      "  Stream #0:0: Video: mpeg4 (FMP4 / 0x34504D46), yuv420p(tv, progressive), 640x360, q=2-31, 200 kb/s, 30 fps, 30 tbn\n",
      "      Metadata:\n",
      "        encoder         : Lavc61.19.100 mpeg4\n",
      "      Side data:\n",
      "        cpb: bitrate max/min/avg: 0/0/200000 buffer size: 0 vbv_delay: N/A\n",
      "[out#0/avi @ 0x5905a8b169c0] video:275KiB audio:0KiB subtitle:0KiB other streams:0KiB global headers:0KiB muxing overhead: 3.322424%\n",
      "frame=  149 fps= 30 q=4.7 Lsize=     284KiB time=00:00:04.96 bitrate= 468.9kbits/s speed=   1x    \n",
      "ffmpeg version n7.1 Copyright (c) 2000-2024 the FFmpeg developers\n",
      "  built with gcc 14.2.1 (GCC) 20240910\n",
      "  configuration: --prefix=/usr --disable-debug --disable-static --disable-stripping --enable-amf --enable-avisynth --enable-cuda-llvm --enable-lto --enable-fontconfig --enable-frei0r --enable-gmp --enable-gnutls --enable-gpl --enable-ladspa --enable-libaom --enable-libass --enable-libbluray --enable-libbs2b --enable-libdav1d --enable-libdrm --enable-libdvdnav --enable-libdvdread --enable-libfreetype --enable-libfribidi --enable-libglslang --enable-libgsm --enable-libharfbuzz --enable-libiec61883 --enable-libjack --enable-libjxl --enable-libmodplug --enable-libmp3lame --enable-libopencore_amrnb --enable-libopencore_amrwb --enable-libopenjpeg --enable-libopenmpt --enable-libopus --enable-libplacebo --enable-libpulse --enable-librav1e --enable-librsvg --enable-librubberband --enable-libsnappy --enable-libsoxr --enable-libspeex --enable-libsrt --enable-libssh --enable-libsvtav1 --enable-libtheora --enable-libv4l2 --enable-libvidstab --enable-libvmaf --enable-libvorbis --enable-libvpl --enable-libvpx --enable-libwebp --enable-libx264 --enable-libx265 --enable-libxcb --enable-libxml2 --enable-libxvid --enable-libzimg --enable-libzmq --enable-nvdec --enable-nvenc --enable-opencl --enable-opengl --enable-shared --enable-vapoursynth --enable-version3 --enable-vulkan\n",
      "  libavutil      59. 39.100 / 59. 39.100\n",
      "  libavcodec     61. 19.100 / 61. 19.100\n",
      "  libavformat    61.  7.100 / 61.  7.100\n",
      "  libavdevice    61.  3.100 / 61.  3.100\n",
      "  libavfilter    10.  4.100 / 10.  4.100\n",
      "  libswscale      8.  3.100 /  8.  3.100\n",
      "  libswresample   5.  3.100 /  5.  3.100\n",
      "  libpostproc    58.  3.100 / 58.  3.100\n",
      "Input #0, avi, from '../data/videos/test_1/i420.avi':\n",
      "  Metadata:\n",
      "    software        : Lavf61.7.100\n",
      "  Duration: 00:00:05.00, start: 0.000000, bitrate: 465 kb/s\n",
      "  Stream #0:0: Video: mpeg4 (Simple Profile) (FMP4 / 0x34504D46), yuv420p, 640x360 [SAR 1:1 DAR 16:9], 453 kb/s, 30 fps, 30 tbr, 30 tbn\n",
      "Stream mapping:\n",
      "  Stream #0:0 -> #0:0 (mpeg4 (native) -> h264 (libx264))\n",
      "Press [q] to stop, [?] for help\n",
      "[libx264 @ 0x559d49116200] using SAR=1/1\n",
      "[libx264 @ 0x559d49116200] using cpu capabilities: MMX2 SSE2Fast SSSE3 SSE4.2 AVX FMA3 BMI2 AVX2\n",
      "[libx264 @ 0x559d49116200] profile High, level 3.0, 4:2:0, 8-bit\n",
      "[libx264 @ 0x559d49116200] 264 - core 164 r3108 31e19f9 - H.264/MPEG-4 AVC codec - Copyleft 2003-2023 - http://www.videolan.org/x264.html - options: cabac=1 ref=3 deblock=1:0:0 analyse=0x3:0x113 me=hex subme=7 psy=1 psy_rd=1.00:0.00 mixed_ref=1 me_range=16 chroma_me=1 trellis=1 8x8dct=1 cqm=0 deadzone=21,11 fast_pskip=1 chroma_qp_offset=-2 threads=11 lookahead_threads=1 sliced_threads=0 nr=0 decimate=1 interlaced=0 bluray_compat=0 constrained_intra=0 bframes=3 b_pyramid=2 b_adapt=1 b_bias=0 direct=1 weightb=1 open_gop=0 weightp=2 keyint=250 keyint_min=25 scenecut=40 intra_refresh=0 rc_lookahead=40 rc=crf mbtree=1 crf=23.0 qcomp=0.60 qpmin=0 qpmax=69 qpstep=4 ip_ratio=1.40 aq=1:1.00\n",
      "Output #0, mp4, to '../data/videos/test_1/mp4.mp4':\n",
      "  Metadata:\n",
      "    software        : Lavf61.7.100\n",
      "    encoder         : Lavf61.7.100\n",
      "  Stream #0:0: Video: h264 (avc1 / 0x31637661), yuv420p(tv, progressive), 640x360 [SAR 1:1 DAR 16:9], q=2-31, 30 fps, 15360 tbn\n",
      "      Metadata:\n",
      "        encoder         : Lavc61.19.100 libx264\n",
      "      Side data:\n",
      "        cpb: bitrate max/min/avg: 0/0/0 buffer size: 0 vbv_delay: N/A\n",
      "[out#0/mp4 @ 0x559d4911b840] video:135KiB audio:0KiB subtitle:0KiB other streams:0KiB global headers:0KiB muxing overhead: 1.926662%\n",
      "frame=  149 fps=0.0 q=-1.0 Lsize=     137KiB time=00:00:04.93 bitrate= 227.9kbits/s speed=5.12x    \n",
      "[libx264 @ 0x559d49116200] frame I:1     Avg QP:20.46  size: 10725\n",
      "[libx264 @ 0x559d49116200] frame P:49    Avg QP:20.60  size:  2049\n",
      "[libx264 @ 0x559d49116200] frame B:99    Avg QP:22.97  size:   263\n",
      "[libx264 @ 0x559d49116200] consecutive B-frames:  3.4% 22.8%  4.0% 69.8%\n",
      "[libx264 @ 0x559d49116200] mb I  I16..4: 25.8% 70.9%  3.4%\n",
      "[libx264 @ 0x559d49116200] mb P  I16..4:  2.4%  9.3%  0.2%  P16..4: 29.1%  4.7%  4.2%  0.0%  0.0%    skip:50.2%\n",
      "[libx264 @ 0x559d49116200] mb B  I16..4:  0.2%  1.1%  0.0%  B16..8: 18.1%  0.2%  0.0%  direct: 1.1%  skip:79.3%  L0:52.7% L1:46.6% BI: 0.7%\n",
      "[libx264 @ 0x559d49116200] 8x8 transform intra:78.8% inter:81.9%\n",
      "[libx264 @ 0x559d49116200] coded y,uvDC,uvAC intra: 42.2% 40.4% 3.7% inter: 3.5% 9.4% 0.2%\n",
      "[libx264 @ 0x559d49116200] i16 v,h,dc,p: 49% 18% 19% 14%\n",
      "[libx264 @ 0x559d49116200] i8 v,h,dc,ddl,ddr,vr,hd,vl,hu: 28% 17% 47%  1%  1%  1%  1%  1%  1%\n",
      "[libx264 @ 0x559d49116200] i4 v,h,dc,ddl,ddr,vr,hd,vl,hu: 55% 12% 16%  1%  5%  5%  3%  2%  1%\n",
      "[libx264 @ 0x559d49116200] i8c dc,h,v,p: 46% 23% 30%  2%\n",
      "[libx264 @ 0x559d49116200] Weighted P-Frames: Y:2.0% UV:2.0%\n",
      "[libx264 @ 0x559d49116200] ref P L0: 74.9%  6.8% 12.1%  5.4%  0.7%\n",
      "[libx264 @ 0x559d49116200] ref B L0: 80.0% 16.2%  3.9%\n",
      "[libx264 @ 0x559d49116200] ref B L1: 96.1%  3.9%\n",
      "[libx264 @ 0x559d49116200] kb/s:219.46\n",
      "ffmpeg version n7.1 Copyright (c) 2000-2024 the FFmpeg developers\n",
      "  built with gcc 14.2.1 (GCC) 20240910\n",
      "  configuration: --prefix=/usr --disable-debug --disable-static --disable-stripping --enable-amf --enable-avisynth --enable-cuda-llvm --enable-lto --enable-fontconfig --enable-frei0r --enable-gmp --enable-gnutls --enable-gpl --enable-ladspa --enable-libaom --enable-libass --enable-libbluray --enable-libbs2b --enable-libdav1d --enable-libdrm --enable-libdvdnav --enable-libdvdread --enable-libfreetype --enable-libfribidi --enable-libglslang --enable-libgsm --enable-libharfbuzz --enable-libiec61883 --enable-libjack --enable-libjxl --enable-libmodplug --enable-libmp3lame --enable-libopencore_amrnb --enable-libopencore_amrwb --enable-libopenjpeg --enable-libopenmpt --enable-libopus --enable-libplacebo --enable-libpulse --enable-librav1e --enable-librsvg --enable-librubberband --enable-libsnappy --enable-libsoxr --enable-libspeex --enable-libsrt --enable-libssh --enable-libsvtav1 --enable-libtheora --enable-libv4l2 --enable-libvidstab --enable-libvmaf --enable-libvorbis --enable-libvpl --enable-libvpx --enable-libwebp --enable-libx264 --enable-libx265 --enable-libxcb --enable-libxml2 --enable-libxvid --enable-libzimg --enable-libzmq --enable-nvdec --enable-nvenc --enable-opencl --enable-opengl --enable-shared --enable-vapoursynth --enable-version3 --enable-vulkan\n",
      "  libavutil      59. 39.100 / 59. 39.100\n",
      "  libavcodec     61. 19.100 / 61. 19.100\n",
      "  libavformat    61.  7.100 / 61.  7.100\n",
      "  libavdevice    61.  3.100 / 61.  3.100\n",
      "  libavfilter    10.  4.100 / 10.  4.100\n",
      "  libswscale      8.  3.100 /  8.  3.100\n",
      "  libswresample   5.  3.100 /  5.  3.100\n",
      "  libpostproc    58.  3.100 / 58.  3.100\n",
      "Input #0, avi, from '../data/videos/test_1/i420.avi':\n",
      "  Metadata:\n",
      "    software        : Lavf61.7.100\n",
      "  Duration: 00:00:05.00, start: 0.000000, bitrate: 465 kb/s\n",
      "  Stream #0:0: Video: mpeg4 (Simple Profile) (FMP4 / 0x34504D46), yuv420p, 640x360 [SAR 1:1 DAR 16:9], 453 kb/s, 30 fps, 30 tbr, 30 tbn\n",
      "Stream mapping:\n",
      "  Stream #0:0 -> #0:0 (mpeg4 (native) -> mpeg4 (native))\n",
      "Press [q] to stop, [?] for help\n",
      "Output #0, avi, to '../data/videos/test_1/divx.avi':\n",
      "  Metadata:\n",
      "    software        : Lavf61.7.100\n",
      "    ISFT            : Lavf61.7.100\n",
      "  Stream #0:0: Video: mpeg4 (FMP4 / 0x34504D46), yuv420p(tv, progressive), 640x360 [SAR 1:1 DAR 16:9], q=2-31, 200 kb/s, 30 fps, 30 tbn\n",
      "      Metadata:\n",
      "        encoder         : Lavc61.19.100 mpeg4\n",
      "      Side data:\n",
      "        cpb: bitrate max/min/avg: 0/0/200000 buffer size: 0 vbv_delay: N/A\n",
      "[out#0/avi @ 0x596c578c3840] video:295KiB audio:0KiB subtitle:0KiB other streams:0KiB global headers:0KiB muxing overhead: 3.116927%\n",
      "frame=  149 fps=0.0 q=3.4 Lsize=     304KiB time=00:00:05.00 bitrate= 498.8kbits/s speed=23.4x    \n",
      "ffmpeg version n7.1 Copyright (c) 2000-2024 the FFmpeg developers\n",
      "  built with gcc 14.2.1 (GCC) 20240910\n",
      "  configuration: --prefix=/usr --disable-debug --disable-static --disable-stripping --enable-amf --enable-avisynth --enable-cuda-llvm --enable-lto --enable-fontconfig --enable-frei0r --enable-gmp --enable-gnutls --enable-gpl --enable-ladspa --enable-libaom --enable-libass --enable-libbluray --enable-libbs2b --enable-libdav1d --enable-libdrm --enable-libdvdnav --enable-libdvdread --enable-libfreetype --enable-libfribidi --enable-libglslang --enable-libgsm --enable-libharfbuzz --enable-libiec61883 --enable-libjack --enable-libjxl --enable-libmodplug --enable-libmp3lame --enable-libopencore_amrnb --enable-libopencore_amrwb --enable-libopenjpeg --enable-libopenmpt --enable-libopus --enable-libplacebo --enable-libpulse --enable-librav1e --enable-librsvg --enable-librubberband --enable-libsnappy --enable-libsoxr --enable-libspeex --enable-libsrt --enable-libssh --enable-libsvtav1 --enable-libtheora --enable-libv4l2 --enable-libvidstab --enable-libvmaf --enable-libvorbis --enable-libvpl --enable-libvpx --enable-libwebp --enable-libx264 --enable-libx265 --enable-libxcb --enable-libxml2 --enable-libxvid --enable-libzimg --enable-libzmq --enable-nvdec --enable-nvenc --enable-opencl --enable-opengl --enable-shared --enable-vapoursynth --enable-version3 --enable-vulkan\n",
      "  libavutil      59. 39.100 / 59. 39.100\n",
      "  libavcodec     61. 19.100 / 61. 19.100\n",
      "  libavformat    61.  7.100 / 61.  7.100\n",
      "  libavdevice    61.  3.100 / 61.  3.100\n",
      "  libavfilter    10.  4.100 / 10.  4.100\n",
      "  libswscale      8.  3.100 /  8.  3.100\n",
      "  libswresample   5.  3.100 /  5.  3.100\n",
      "  libpostproc    58.  3.100 / 58.  3.100\n",
      "Input #0, avi, from '../data/videos/test_1/i420.avi':\n",
      "  Metadata:\n",
      "    software        : Lavf61.7.100\n",
      "  Duration: 00:00:05.00, start: 0.000000, bitrate: 465 kb/s\n",
      "  Stream #0:0: Video: mpeg4 (Simple Profile) (FMP4 / 0x34504D46), yuv420p, 640x360 [SAR 1:1 DAR 16:9], 453 kb/s, 30 fps, 30 tbr, 30 tbn\n",
      "Stream mapping:\n",
      "  Stream #0:0 -> #0:0 (mpeg4 (native) -> flv1 (flv))\n",
      "Press [q] to stop, [?] for help\n",
      "Output #0, flv, to '../data/videos/test_1/flv.flv':\n",
      "  Metadata:\n",
      "    software        : Lavf61.7.100\n",
      "    encoder         : Lavf61.7.100\n",
      "  Stream #0:0: Video: flv1 ([2][0][0][0] / 0x0002), yuv420p(tv, progressive), 640x360 [SAR 1:1 DAR 16:9], q=2-31, 200 kb/s, 30 fps, 1k tbn\n",
      "      Metadata:\n",
      "        encoder         : Lavc61.19.100 flv\n",
      "      Side data:\n",
      "        cpb: bitrate max/min/avg: 0/0/200000 buffer size: 0 vbv_delay: N/A\n",
      "[out#0/flv @ 0x5c85fc6f3840] video:336KiB audio:0KiB subtitle:0KiB other streams:0KiB global headers:0KiB muxing overhead: 0.761597%\n",
      "frame=  149 fps=0.0 q=3.7 Lsize=     339KiB time=00:00:05.00 bitrate= 554.6kbits/s speed=19.9x    \n",
      "ffmpeg version n7.1 Copyright (c) 2000-2024 the FFmpeg developers\n",
      "  built with gcc 14.2.1 (GCC) 20240910\n",
      "  configuration: --prefix=/usr --disable-debug --disable-static --disable-stripping --enable-amf --enable-avisynth --enable-cuda-llvm --enable-lto --enable-fontconfig --enable-frei0r --enable-gmp --enable-gnutls --enable-gpl --enable-ladspa --enable-libaom --enable-libass --enable-libbluray --enable-libbs2b --enable-libdav1d --enable-libdrm --enable-libdvdnav --enable-libdvdread --enable-libfreetype --enable-libfribidi --enable-libglslang --enable-libgsm --enable-libharfbuzz --enable-libiec61883 --enable-libjack --enable-libjxl --enable-libmodplug --enable-libmp3lame --enable-libopencore_amrnb --enable-libopencore_amrwb --enable-libopenjpeg --enable-libopenmpt --enable-libopus --enable-libplacebo --enable-libpulse --enable-librav1e --enable-librsvg --enable-librubberband --enable-libsnappy --enable-libsoxr --enable-libspeex --enable-libsrt --enable-libssh --enable-libsvtav1 --enable-libtheora --enable-libv4l2 --enable-libvidstab --enable-libvmaf --enable-libvorbis --enable-libvpl --enable-libvpx --enable-libwebp --enable-libx264 --enable-libx265 --enable-libxcb --enable-libxml2 --enable-libxvid --enable-libzimg --enable-libzmq --enable-nvdec --enable-nvenc --enable-opencl --enable-opengl --enable-shared --enable-vapoursynth --enable-version3 --enable-vulkan\n",
      "  libavutil      59. 39.100 / 59. 39.100\n",
      "  libavcodec     61. 19.100 / 61. 19.100\n",
      "  libavformat    61.  7.100 / 61.  7.100\n",
      "  libavdevice    61.  3.100 / 61.  3.100\n",
      "  libavfilter    10.  4.100 / 10.  4.100\n",
      "  libswscale      8.  3.100 /  8.  3.100\n",
      "  libswresample   5.  3.100 /  5.  3.100\n",
      "  libpostproc    58.  3.100 / 58.  3.100\n",
      "Input #0, avi, from '../data/videos/test_1/i420.avi':\n",
      "  Metadata:\n",
      "    software        : Lavf61.7.100\n",
      "  Duration: 00:00:05.00, start: 0.000000, bitrate: 465 kb/s\n",
      "  Stream #0:0: Video: mpeg4 (Simple Profile) (FMP4 / 0x34504D46), yuv420p, 640x360 [SAR 1:1 DAR 16:9], 453 kb/s, 30 fps, 30 tbr, 30 tbn\n",
      "Stream mapping:\n",
      "  Stream #0:0 -> #0:0 (mpeg4 (native) -> mpeg4 (libxvid))\n",
      "Press [q] to stop, [?] for help\n",
      "Output #0, avi, to '../data/videos/test_1/xvid.avi':\n",
      "  Metadata:\n",
      "    software        : Lavf61.7.100\n",
      "    ISFT            : Lavf61.7.100\n",
      "  Stream #0:0: Video: mpeg4 (xvid / 0x64697678), yuv420p(tv, progressive), 640x360 [SAR 1:1 DAR 16:9], q=2-31, 200 kb/s, 30 fps, 30 tbn\n",
      "      Metadata:\n",
      "        encoder         : Lavc61.19.100 libxvid\n",
      "[out#0/avi @ 0x5adfb93f8840] video:186KiB audio:0KiB subtitle:0KiB other streams:0KiB global headers:0KiB muxing overhead: 4.941356%\n",
      "frame=  149 fps=0.0 q=9.0 Lsize=     196KiB time=00:00:05.00 bitrate= 320.5kbits/s speed=  11x    \n"
     ]
    },
    {
     "name": "stdout",
     "output_type": "stream",
     "text": [
      "\n",
      "Taking video in...\n",
      "3...\n",
      "2...\n",
      "1...\n"
     ]
    },
    {
     "name": "stderr",
     "output_type": "stream",
     "text": [
      "ffmpeg version n7.1 Copyright (c) 2000-2024 the FFmpeg developers\n",
      "  built with gcc 14.2.1 (GCC) 20240910\n",
      "  configuration: --prefix=/usr --disable-debug --disable-static --disable-stripping --enable-amf --enable-avisynth --enable-cuda-llvm --enable-lto --enable-fontconfig --enable-frei0r --enable-gmp --enable-gnutls --enable-gpl --enable-ladspa --enable-libaom --enable-libass --enable-libbluray --enable-libbs2b --enable-libdav1d --enable-libdrm --enable-libdvdnav --enable-libdvdread --enable-libfreetype --enable-libfribidi --enable-libglslang --enable-libgsm --enable-libharfbuzz --enable-libiec61883 --enable-libjack --enable-libjxl --enable-libmodplug --enable-libmp3lame --enable-libopencore_amrnb --enable-libopencore_amrwb --enable-libopenjpeg --enable-libopenmpt --enable-libopus --enable-libplacebo --enable-libpulse --enable-librav1e --enable-librsvg --enable-librubberband --enable-libsnappy --enable-libsoxr --enable-libspeex --enable-libsrt --enable-libssh --enable-libsvtav1 --enable-libtheora --enable-libv4l2 --enable-libvidstab --enable-libvmaf --enable-libvorbis --enable-libvpl --enable-libvpx --enable-libwebp --enable-libx264 --enable-libx265 --enable-libxcb --enable-libxml2 --enable-libxvid --enable-libzimg --enable-libzmq --enable-nvdec --enable-nvenc --enable-opencl --enable-opengl --enable-shared --enable-vapoursynth --enable-version3 --enable-vulkan\n",
      "  libavutil      59. 39.100 / 59. 39.100\n",
      "  libavcodec     61. 19.100 / 61. 19.100\n",
      "  libavformat    61.  7.100 / 61.  7.100\n",
      "  libavdevice    61.  3.100 / 61.  3.100\n",
      "  libavfilter    10.  4.100 / 10.  4.100\n",
      "  libswscale      8.  3.100 /  8.  3.100\n",
      "  libswresample   5.  3.100 /  5.  3.100\n",
      "  libpostproc    58.  3.100 / 58.  3.100\n",
      "Input #0, video4linux2,v4l2, from '/dev/video0':\n",
      "  Duration: N/A, start: 67.088437, bitrate: 110592 kb/s\n",
      "  Stream #0:0: Video: rawvideo (YUY2 / 0x32595559), yuyv422, 640x360, 110592 kb/s, 30 fps, 30 tbr, 1000k tbn\n",
      "Stream mapping:\n",
      "  Stream #0:0 -> #0:0 (rawvideo (native) -> mpeg4 (native))\n",
      "Press [q] to stop, [?] for help\n",
      "Output #0, avi, to '../data/videos/test_2/i420.avi':\n",
      "  Metadata:\n",
      "    ISFT            : Lavf61.7.100\n",
      "  Stream #0:0: Video: mpeg4 (FMP4 / 0x34504D46), yuv420p(tv, progressive), 640x360, q=2-31, 200 kb/s, 30 fps, 30 tbn\n",
      "      Metadata:\n",
      "        encoder         : Lavc61.19.100 mpeg4\n",
      "      Side data:\n",
      "        cpb: bitrate max/min/avg: 0/0/200000 buffer size: 0 vbv_delay: N/A\n",
      "[out#0/avi @ 0x55d50e0eb9c0] video:268KiB audio:0KiB subtitle:0KiB other streams:0KiB global headers:0KiB muxing overhead: 3.410085%\n",
      "frame=  149 fps= 30 q=5.4 Lsize=     277KiB time=00:00:04.96 bitrate= 457.2kbits/s speed=0.996x    \n",
      "ffmpeg version n7.1 Copyright (c) 2000-2024 the FFmpeg developers\n",
      "  built with gcc 14.2.1 (GCC) 20240910\n",
      "  configuration: --prefix=/usr --disable-debug --disable-static --disable-stripping --enable-amf --enable-avisynth --enable-cuda-llvm --enable-lto --enable-fontconfig --enable-frei0r --enable-gmp --enable-gnutls --enable-gpl --enable-ladspa --enable-libaom --enable-libass --enable-libbluray --enable-libbs2b --enable-libdav1d --enable-libdrm --enable-libdvdnav --enable-libdvdread --enable-libfreetype --enable-libfribidi --enable-libglslang --enable-libgsm --enable-libharfbuzz --enable-libiec61883 --enable-libjack --enable-libjxl --enable-libmodplug --enable-libmp3lame --enable-libopencore_amrnb --enable-libopencore_amrwb --enable-libopenjpeg --enable-libopenmpt --enable-libopus --enable-libplacebo --enable-libpulse --enable-librav1e --enable-librsvg --enable-librubberband --enable-libsnappy --enable-libsoxr --enable-libspeex --enable-libsrt --enable-libssh --enable-libsvtav1 --enable-libtheora --enable-libv4l2 --enable-libvidstab --enable-libvmaf --enable-libvorbis --enable-libvpl --enable-libvpx --enable-libwebp --enable-libx264 --enable-libx265 --enable-libxcb --enable-libxml2 --enable-libxvid --enable-libzimg --enable-libzmq --enable-nvdec --enable-nvenc --enable-opencl --enable-opengl --enable-shared --enable-vapoursynth --enable-version3 --enable-vulkan\n",
      "  libavutil      59. 39.100 / 59. 39.100\n",
      "  libavcodec     61. 19.100 / 61. 19.100\n",
      "  libavformat    61.  7.100 / 61.  7.100\n",
      "  libavdevice    61.  3.100 / 61.  3.100\n",
      "  libavfilter    10.  4.100 / 10.  4.100\n",
      "  libswscale      8.  3.100 /  8.  3.100\n",
      "  libswresample   5.  3.100 /  5.  3.100\n",
      "  libpostproc    58.  3.100 / 58.  3.100\n",
      "Input #0, avi, from '../data/videos/test_2/i420.avi':\n",
      "  Metadata:\n",
      "    software        : Lavf61.7.100\n",
      "  Duration: 00:00:05.00, start: 0.000000, bitrate: 454 kb/s\n",
      "  Stream #0:0: Video: mpeg4 (Simple Profile) (FMP4 / 0x34504D46), yuv420p, 640x360 [SAR 1:1 DAR 16:9], 442 kb/s, 30 fps, 30 tbr, 30 tbn\n",
      "Stream mapping:\n",
      "  Stream #0:0 -> #0:0 (mpeg4 (native) -> h264 (libx264))\n",
      "Press [q] to stop, [?] for help\n",
      "[libx264 @ 0x6412e562a200] using SAR=1/1\n",
      "[libx264 @ 0x6412e562a200] using cpu capabilities: MMX2 SSE2Fast SSSE3 SSE4.2 AVX FMA3 BMI2 AVX2\n",
      "[libx264 @ 0x6412e562a200] profile High, level 3.0, 4:2:0, 8-bit\n",
      "[libx264 @ 0x6412e562a200] 264 - core 164 r3108 31e19f9 - H.264/MPEG-4 AVC codec - Copyleft 2003-2023 - http://www.videolan.org/x264.html - options: cabac=1 ref=3 deblock=1:0:0 analyse=0x3:0x113 me=hex subme=7 psy=1 psy_rd=1.00:0.00 mixed_ref=1 me_range=16 chroma_me=1 trellis=1 8x8dct=1 cqm=0 deadzone=21,11 fast_pskip=1 chroma_qp_offset=-2 threads=11 lookahead_threads=1 sliced_threads=0 nr=0 decimate=1 interlaced=0 bluray_compat=0 constrained_intra=0 bframes=3 b_pyramid=2 b_adapt=1 b_bias=0 direct=1 weightb=1 open_gop=0 weightp=2 keyint=250 keyint_min=25 scenecut=40 intra_refresh=0 rc_lookahead=40 rc=crf mbtree=1 crf=23.0 qcomp=0.60 qpmin=0 qpmax=69 qpstep=4 ip_ratio=1.40 aq=1:1.00\n",
      "Output #0, mp4, to '../data/videos/test_2/mp4.mp4':\n",
      "  Metadata:\n",
      "    software        : Lavf61.7.100\n",
      "    encoder         : Lavf61.7.100\n",
      "  Stream #0:0: Video: h264 (avc1 / 0x31637661), yuv420p(tv, progressive), 640x360 [SAR 1:1 DAR 16:9], q=2-31, 30 fps, 15360 tbn\n",
      "      Metadata:\n",
      "        encoder         : Lavc61.19.100 libx264\n",
      "      Side data:\n",
      "        cpb: bitrate max/min/avg: 0/0/0 buffer size: 0 vbv_delay: N/A\n",
      "[out#0/mp4 @ 0x6412e562f840] video:141KiB audio:0KiB subtitle:0KiB other streams:0KiB global headers:0KiB muxing overhead: 1.844880%\n",
      "frame=  149 fps=0.0 q=-1.0 Lsize=     143KiB time=00:00:04.93 bitrate= 237.8kbits/s speed=5.32x    \n",
      "[libx264 @ 0x6412e562a200] frame I:1     Avg QP:20.52  size: 10741\n",
      "[libx264 @ 0x6412e562a200] frame P:55    Avg QP:21.13  size:  1949\n",
      "[libx264 @ 0x6412e562a200] frame B:93    Avg QP:23.17  size:   272\n",
      "[libx264 @ 0x6412e562a200] consecutive B-frames:  5.4% 33.6%  2.0% 59.1%\n",
      "[libx264 @ 0x6412e562a200] mb I  I16..4: 29.5% 68.2%  2.4%\n",
      "[libx264 @ 0x6412e562a200] mb P  I16..4:  2.4%  8.9%  0.1%  P16..4: 28.3%  4.9%  3.7%  0.0%  0.0%    skip:51.5%\n",
      "[libx264 @ 0x6412e562a200] mb B  I16..4:  0.2%  1.1%  0.0%  B16..8: 19.6%  0.2%  0.0%  direct: 0.9%  skip:78.0%  L0:50.4% L1:49.1% BI: 0.5%\n",
      "[libx264 @ 0x6412e562a200] 8x8 transform intra:77.7% inter:81.9%\n",
      "[libx264 @ 0x6412e562a200] coded y,uvDC,uvAC intra: 41.5% 42.7% 4.0% inter: 3.6% 9.5% 0.2%\n",
      "[libx264 @ 0x6412e562a200] i16 v,h,dc,p: 45% 24% 19% 12%\n",
      "[libx264 @ 0x6412e562a200] i8 v,h,dc,ddl,ddr,vr,hd,vl,hu: 29% 17% 47%  1%  1%  1%  1%  1%  1%\n",
      "[libx264 @ 0x6412e562a200] i4 v,h,dc,ddl,ddr,vr,hd,vl,hu: 54% 10% 16%  2%  5%  4%  4%  3%  1%\n",
      "[libx264 @ 0x6412e562a200] i8c dc,h,v,p: 47% 22% 29%  2%\n",
      "[libx264 @ 0x6412e562a200] Weighted P-Frames: Y:1.8% UV:1.8%\n",
      "[libx264 @ 0x6412e562a200] ref P L0: 73.4%  7.9% 13.2%  5.1%  0.4%\n",
      "[libx264 @ 0x6412e562a200] ref B L0: 79.5% 16.3%  4.2%\n",
      "[libx264 @ 0x6412e562a200] ref B L1: 96.6%  3.4%\n",
      "[libx264 @ 0x6412e562a200] kb/s:229.24\n",
      "ffmpeg version n7.1 Copyright (c) 2000-2024 the FFmpeg developers\n",
      "  built with gcc 14.2.1 (GCC) 20240910\n",
      "  configuration: --prefix=/usr --disable-debug --disable-static --disable-stripping --enable-amf --enable-avisynth --enable-cuda-llvm --enable-lto --enable-fontconfig --enable-frei0r --enable-gmp --enable-gnutls --enable-gpl --enable-ladspa --enable-libaom --enable-libass --enable-libbluray --enable-libbs2b --enable-libdav1d --enable-libdrm --enable-libdvdnav --enable-libdvdread --enable-libfreetype --enable-libfribidi --enable-libglslang --enable-libgsm --enable-libharfbuzz --enable-libiec61883 --enable-libjack --enable-libjxl --enable-libmodplug --enable-libmp3lame --enable-libopencore_amrnb --enable-libopencore_amrwb --enable-libopenjpeg --enable-libopenmpt --enable-libopus --enable-libplacebo --enable-libpulse --enable-librav1e --enable-librsvg --enable-librubberband --enable-libsnappy --enable-libsoxr --enable-libspeex --enable-libsrt --enable-libssh --enable-libsvtav1 --enable-libtheora --enable-libv4l2 --enable-libvidstab --enable-libvmaf --enable-libvorbis --enable-libvpl --enable-libvpx --enable-libwebp --enable-libx264 --enable-libx265 --enable-libxcb --enable-libxml2 --enable-libxvid --enable-libzimg --enable-libzmq --enable-nvdec --enable-nvenc --enable-opencl --enable-opengl --enable-shared --enable-vapoursynth --enable-version3 --enable-vulkan\n",
      "  libavutil      59. 39.100 / 59. 39.100\n",
      "  libavcodec     61. 19.100 / 61. 19.100\n",
      "  libavformat    61.  7.100 / 61.  7.100\n",
      "  libavdevice    61.  3.100 / 61.  3.100\n",
      "  libavfilter    10.  4.100 / 10.  4.100\n",
      "  libswscale      8.  3.100 /  8.  3.100\n",
      "  libswresample   5.  3.100 /  5.  3.100\n",
      "  libpostproc    58.  3.100 / 58.  3.100\n",
      "Input #0, avi, from '../data/videos/test_2/i420.avi':\n",
      "  Metadata:\n",
      "    software        : Lavf61.7.100\n",
      "  Duration: 00:00:05.00, start: 0.000000, bitrate: 454 kb/s\n",
      "  Stream #0:0: Video: mpeg4 (Simple Profile) (FMP4 / 0x34504D46), yuv420p, 640x360 [SAR 1:1 DAR 16:9], 442 kb/s, 30 fps, 30 tbr, 30 tbn\n",
      "Stream mapping:\n",
      "  Stream #0:0 -> #0:0 (mpeg4 (native) -> mpeg4 (native))\n",
      "Press [q] to stop, [?] for help\n",
      "Output #0, avi, to '../data/videos/test_2/divx.avi':\n",
      "  Metadata:\n",
      "    software        : Lavf61.7.100\n",
      "    ISFT            : Lavf61.7.100\n",
      "  Stream #0:0: Video: mpeg4 (FMP4 / 0x34504D46), yuv420p(tv, progressive), 640x360 [SAR 1:1 DAR 16:9], q=2-31, 200 kb/s, 30 fps, 30 tbn\n",
      "      Metadata:\n",
      "        encoder         : Lavc61.19.100 mpeg4\n",
      "      Side data:\n",
      "        cpb: bitrate max/min/avg: 0/0/200000 buffer size: 0 vbv_delay: N/A\n",
      "[out#0/avi @ 0x634830050840] video:285KiB audio:0KiB subtitle:0KiB other streams:0KiB global headers:0KiB muxing overhead: 3.239378%\n",
      "frame=  149 fps=0.0 q=4.0 Lsize=     294KiB time=00:00:05.00 bitrate= 481.4kbits/s speed=35.5x    \n",
      "ffmpeg version n7.1 Copyright (c) 2000-2024 the FFmpeg developers\n",
      "  built with gcc 14.2.1 (GCC) 20240910\n",
      "  configuration: --prefix=/usr --disable-debug --disable-static --disable-stripping --enable-amf --enable-avisynth --enable-cuda-llvm --enable-lto --enable-fontconfig --enable-frei0r --enable-gmp --enable-gnutls --enable-gpl --enable-ladspa --enable-libaom --enable-libass --enable-libbluray --enable-libbs2b --enable-libdav1d --enable-libdrm --enable-libdvdnav --enable-libdvdread --enable-libfreetype --enable-libfribidi --enable-libglslang --enable-libgsm --enable-libharfbuzz --enable-libiec61883 --enable-libjack --enable-libjxl --enable-libmodplug --enable-libmp3lame --enable-libopencore_amrnb --enable-libopencore_amrwb --enable-libopenjpeg --enable-libopenmpt --enable-libopus --enable-libplacebo --enable-libpulse --enable-librav1e --enable-librsvg --enable-librubberband --enable-libsnappy --enable-libsoxr --enable-libspeex --enable-libsrt --enable-libssh --enable-libsvtav1 --enable-libtheora --enable-libv4l2 --enable-libvidstab --enable-libvmaf --enable-libvorbis --enable-libvpl --enable-libvpx --enable-libwebp --enable-libx264 --enable-libx265 --enable-libxcb --enable-libxml2 --enable-libxvid --enable-libzimg --enable-libzmq --enable-nvdec --enable-nvenc --enable-opencl --enable-opengl --enable-shared --enable-vapoursynth --enable-version3 --enable-vulkan\n",
      "  libavutil      59. 39.100 / 59. 39.100\n",
      "  libavcodec     61. 19.100 / 61. 19.100\n",
      "  libavformat    61.  7.100 / 61.  7.100\n",
      "  libavdevice    61.  3.100 / 61.  3.100\n",
      "  libavfilter    10.  4.100 / 10.  4.100\n",
      "  libswscale      8.  3.100 /  8.  3.100\n",
      "  libswresample   5.  3.100 /  5.  3.100\n",
      "  libpostproc    58.  3.100 / 58.  3.100\n",
      "Input #0, avi, from '../data/videos/test_2/i420.avi':\n",
      "  Metadata:\n",
      "    software        : Lavf61.7.100\n",
      "  Duration: 00:00:05.00, start: 0.000000, bitrate: 454 kb/s\n",
      "  Stream #0:0: Video: mpeg4 (Simple Profile) (FMP4 / 0x34504D46), yuv420p, 640x360 [SAR 1:1 DAR 16:9], 442 kb/s, 30 fps, 30 tbr, 30 tbn\n",
      "Stream mapping:\n",
      "  Stream #0:0 -> #0:0 (mpeg4 (native) -> flv1 (flv))\n",
      "Press [q] to stop, [?] for help\n",
      "Output #0, flv, to '../data/videos/test_2/flv.flv':\n",
      "  Metadata:\n",
      "    software        : Lavf61.7.100\n",
      "    encoder         : Lavf61.7.100\n",
      "  Stream #0:0: Video: flv1 ([2][0][0][0] / 0x0002), yuv420p(tv, progressive), 640x360 [SAR 1:1 DAR 16:9], q=2-31, 200 kb/s, 30 fps, 1k tbn\n",
      "      Metadata:\n",
      "        encoder         : Lavc61.19.100 flv\n",
      "      Side data:\n",
      "        cpb: bitrate max/min/avg: 0/0/200000 buffer size: 0 vbv_delay: N/A\n",
      "[out#0/flv @ 0x5d77c747b840] video:334KiB audio:0KiB subtitle:0KiB other streams:0KiB global headers:0KiB muxing overhead: 0.766380%\n",
      "frame=  149 fps=0.0 q=5.1 Lsize=     336KiB time=00:00:05.00 bitrate= 551.2kbits/s speed=21.3x    \n",
      "ffmpeg version n7.1 Copyright (c) 2000-2024 the FFmpeg developers\n",
      "  built with gcc 14.2.1 (GCC) 20240910\n",
      "  configuration: --prefix=/usr --disable-debug --disable-static --disable-stripping --enable-amf --enable-avisynth --enable-cuda-llvm --enable-lto --enable-fontconfig --enable-frei0r --enable-gmp --enable-gnutls --enable-gpl --enable-ladspa --enable-libaom --enable-libass --enable-libbluray --enable-libbs2b --enable-libdav1d --enable-libdrm --enable-libdvdnav --enable-libdvdread --enable-libfreetype --enable-libfribidi --enable-libglslang --enable-libgsm --enable-libharfbuzz --enable-libiec61883 --enable-libjack --enable-libjxl --enable-libmodplug --enable-libmp3lame --enable-libopencore_amrnb --enable-libopencore_amrwb --enable-libopenjpeg --enable-libopenmpt --enable-libopus --enable-libplacebo --enable-libpulse --enable-librav1e --enable-librsvg --enable-librubberband --enable-libsnappy --enable-libsoxr --enable-libspeex --enable-libsrt --enable-libssh --enable-libsvtav1 --enable-libtheora --enable-libv4l2 --enable-libvidstab --enable-libvmaf --enable-libvorbis --enable-libvpl --enable-libvpx --enable-libwebp --enable-libx264 --enable-libx265 --enable-libxcb --enable-libxml2 --enable-libxvid --enable-libzimg --enable-libzmq --enable-nvdec --enable-nvenc --enable-opencl --enable-opengl --enable-shared --enable-vapoursynth --enable-version3 --enable-vulkan\n",
      "  libavutil      59. 39.100 / 59. 39.100\n",
      "  libavcodec     61. 19.100 / 61. 19.100\n",
      "  libavformat    61.  7.100 / 61.  7.100\n",
      "  libavdevice    61.  3.100 / 61.  3.100\n",
      "  libavfilter    10.  4.100 / 10.  4.100\n",
      "  libswscale      8.  3.100 /  8.  3.100\n",
      "  libswresample   5.  3.100 /  5.  3.100\n",
      "  libpostproc    58.  3.100 / 58.  3.100\n",
      "Input #0, avi, from '../data/videos/test_2/i420.avi':\n",
      "  Metadata:\n",
      "    software        : Lavf61.7.100\n",
      "  Duration: 00:00:05.00, start: 0.000000, bitrate: 454 kb/s\n",
      "  Stream #0:0: Video: mpeg4 (Simple Profile) (FMP4 / 0x34504D46), yuv420p, 640x360 [SAR 1:1 DAR 16:9], 442 kb/s, 30 fps, 30 tbr, 30 tbn\n",
      "Stream mapping:\n",
      "  Stream #0:0 -> #0:0 (mpeg4 (native) -> mpeg4 (libxvid))\n",
      "Press [q] to stop, [?] for help\n",
      "Output #0, avi, to '../data/videos/test_2/xvid.avi':\n",
      "  Metadata:\n",
      "    software        : Lavf61.7.100\n",
      "    ISFT            : Lavf61.7.100\n",
      "  Stream #0:0: Video: mpeg4 (xvid / 0x64697678), yuv420p(tv, progressive), 640x360 [SAR 1:1 DAR 16:9], q=2-31, 200 kb/s, 30 fps, 30 tbn\n",
      "      Metadata:\n",
      "        encoder         : Lavc61.19.100 libxvid\n",
      "[out#0/avi @ 0x5f2ca82f2840] video:187KiB audio:0KiB subtitle:0KiB other streams:0KiB global headers:0KiB muxing overhead: 4.932562%\n",
      "frame=  149 fps=0.0 q=11.0 Lsize=     196KiB time=00:00:05.00 bitrate= 321.7kbits/s speed=9.91x    \n"
     ]
    }
   ],
   "source": [
    "capture_video(\"test_1\")\n",
    "capture_video(\"test_2\")"
   ]
  },
  {
   "cell_type": "markdown",
   "metadata": {},
   "source": [
    "# Pricessing videos into DF"
   ]
  },
  {
   "cell_type": "code",
   "execution_count": 4,
   "metadata": {},
   "outputs": [],
   "source": [
    "def get_df_info(duration = 5, fps=30):\n",
    "    base_path = \"../data/videos/\"\n",
    "    test_folders = [f for f in os.listdir(base_path) if os.path.isdir(os.path.join(base_path, f))]\n",
    "    \n",
    "    data = []\n",
    "\n",
    "    for folder_name in test_folders:\n",
    "        folder_path = os.path.join(base_path, folder_name)\n",
    "        \n",
    "        for file in os.listdir(folder_path):\n",
    "            file_path = os.path.join(folder_path, file)\n",
    "\n",
    "            cap = cv2.VideoCapture(file_path)\n",
    "            cap.set(cv2.CAP_PROP_POS_FRAMES, 1)\n",
    "            _, frame= cap.read()\n",
    "            ref_img = cv2.cvtColor(frame, cv2.COLOR_BGR2GRAY)\n",
    "\n",
    "            cap = cv2.VideoCapture(file_path)\n",
    "            cap.set(cv2.CAP_PROP_POS_FRAMES, int(duration*fps/3))\n",
    "            _, frame= cap.read()\n",
    "            cv2.imwrite(f\"{folder_path}/output.jpg\", frame)\n",
    "            compare_img = cv2.cvtColor(frame, cv2.COLOR_BGR2GRAY)\n",
    "            \n",
    "            if compare_img is not None:\n",
    "                # Resize to match reference if needed\n",
    "                compare_img = cv2.resize(compare_img, (ref_img.shape[1], ref_img.shape[0]))\n",
    "\n",
    "                # Compute SSIM\n",
    "                ssim_score = ssim(ref_img, compare_img)\n",
    "                \n",
    "                # Compute Mean Squared Error (MSE)\n",
    "                mse_score = np.mean((ref_img.astype(\"float\") - compare_img.astype(\"float\")) ** 2)\n",
    "\n",
    "            if os.path.exists(file_path):\n",
    "                file_size = os.path.getsize(file_path) / 1024\n",
    "                if ref_img is not None:\n",
    "                    height, width = ref_img.shape[:2]\n",
    "                image_size = f\"{width}x{height}\"  # Known capture resolution\n",
    "                data.append([folder_name, file, duration, fps, image_size, file_size, ssim_score, mse_score])\n",
    "\n",
    "    # Create a global DataFrame\n",
    "    df = pd.DataFrame(data, columns=[\"test no.\", \"video format\", \"duration\", \"fps\", \"image size\", \"file size\", \"SSIM\", \"MSE\"])\n",
    "    return df"
   ]
  },
  {
   "cell_type": "code",
   "execution_count": 5,
   "metadata": {},
   "outputs": [
    {
     "data": {
      "text/html": [
       "<div>\n",
       "<style scoped>\n",
       "    .dataframe tbody tr th:only-of-type {\n",
       "        vertical-align: middle;\n",
       "    }\n",
       "\n",
       "    .dataframe tbody tr th {\n",
       "        vertical-align: top;\n",
       "    }\n",
       "\n",
       "    .dataframe thead th {\n",
       "        text-align: right;\n",
       "    }\n",
       "</style>\n",
       "<table border=\"1\" class=\"dataframe\">\n",
       "  <thead>\n",
       "    <tr style=\"text-align: right;\">\n",
       "      <th></th>\n",
       "      <th>test no.</th>\n",
       "      <th>video format</th>\n",
       "      <th>duration</th>\n",
       "      <th>fps</th>\n",
       "      <th>image size</th>\n",
       "      <th>file size</th>\n",
       "      <th>SSIM</th>\n",
       "      <th>MSE</th>\n",
       "    </tr>\n",
       "  </thead>\n",
       "  <tbody>\n",
       "    <tr>\n",
       "      <th>0</th>\n",
       "      <td>test_2</td>\n",
       "      <td>i420.avi</td>\n",
       "      <td>5</td>\n",
       "      <td>30</td>\n",
       "      <td>640x360</td>\n",
       "      <td>277.187500</td>\n",
       "      <td>0.976839</td>\n",
       "      <td>9.317235</td>\n",
       "    </tr>\n",
       "    <tr>\n",
       "      <th>1</th>\n",
       "      <td>test_2</td>\n",
       "      <td>mp4.mp4</td>\n",
       "      <td>5</td>\n",
       "      <td>30</td>\n",
       "      <td>640x360</td>\n",
       "      <td>143.185547</td>\n",
       "      <td>0.977716</td>\n",
       "      <td>9.464514</td>\n",
       "    </tr>\n",
       "    <tr>\n",
       "      <th>2</th>\n",
       "      <td>test_2</td>\n",
       "      <td>flv.flv</td>\n",
       "      <td>5</td>\n",
       "      <td>30</td>\n",
       "      <td>640x360</td>\n",
       "      <td>336.413086</td>\n",
       "      <td>0.977054</td>\n",
       "      <td>9.159744</td>\n",
       "    </tr>\n",
       "    <tr>\n",
       "      <th>3</th>\n",
       "      <td>test_2</td>\n",
       "      <td>xvid.avi</td>\n",
       "      <td>5</td>\n",
       "      <td>30</td>\n",
       "      <td>640x360</td>\n",
       "      <td>196.322266</td>\n",
       "      <td>0.956996</td>\n",
       "      <td>13.598390</td>\n",
       "    </tr>\n",
       "    <tr>\n",
       "      <th>4</th>\n",
       "      <td>test_2</td>\n",
       "      <td>divx.avi</td>\n",
       "      <td>5</td>\n",
       "      <td>30</td>\n",
       "      <td>640x360</td>\n",
       "      <td>293.802734</td>\n",
       "      <td>0.976674</td>\n",
       "      <td>9.222856</td>\n",
       "    </tr>\n",
       "    <tr>\n",
       "      <th>5</th>\n",
       "      <td>test_1</td>\n",
       "      <td>i420.avi</td>\n",
       "      <td>5</td>\n",
       "      <td>30</td>\n",
       "      <td>640x360</td>\n",
       "      <td>284.259766</td>\n",
       "      <td>0.977610</td>\n",
       "      <td>8.408090</td>\n",
       "    </tr>\n",
       "    <tr>\n",
       "      <th>6</th>\n",
       "      <td>test_1</td>\n",
       "      <td>mp4.mp4</td>\n",
       "      <td>5</td>\n",
       "      <td>30</td>\n",
       "      <td>640x360</td>\n",
       "      <td>137.217773</td>\n",
       "      <td>0.978833</td>\n",
       "      <td>8.688403</td>\n",
       "    </tr>\n",
       "    <tr>\n",
       "      <th>7</th>\n",
       "      <td>test_1</td>\n",
       "      <td>flv.flv</td>\n",
       "      <td>5</td>\n",
       "      <td>30</td>\n",
       "      <td>640x360</td>\n",
       "      <td>338.509766</td>\n",
       "      <td>0.978290</td>\n",
       "      <td>8.541246</td>\n",
       "    </tr>\n",
       "    <tr>\n",
       "      <th>8</th>\n",
       "      <td>test_1</td>\n",
       "      <td>xvid.avi</td>\n",
       "      <td>5</td>\n",
       "      <td>30</td>\n",
       "      <td>640x360</td>\n",
       "      <td>195.636719</td>\n",
       "      <td>0.955684</td>\n",
       "      <td>12.937765</td>\n",
       "    </tr>\n",
       "    <tr>\n",
       "      <th>9</th>\n",
       "      <td>test_1</td>\n",
       "      <td>divx.avi</td>\n",
       "      <td>5</td>\n",
       "      <td>30</td>\n",
       "      <td>640x360</td>\n",
       "      <td>304.433594</td>\n",
       "      <td>0.977806</td>\n",
       "      <td>8.539462</td>\n",
       "    </tr>\n",
       "  </tbody>\n",
       "</table>\n",
       "</div>"
      ],
      "text/plain": [
       "  test no. video format  duration  fps image size   file size      SSIM  \\\n",
       "0   test_2     i420.avi         5   30    640x360  277.187500  0.976839   \n",
       "1   test_2      mp4.mp4         5   30    640x360  143.185547  0.977716   \n",
       "2   test_2      flv.flv         5   30    640x360  336.413086  0.977054   \n",
       "3   test_2     xvid.avi         5   30    640x360  196.322266  0.956996   \n",
       "4   test_2     divx.avi         5   30    640x360  293.802734  0.976674   \n",
       "5   test_1     i420.avi         5   30    640x360  284.259766  0.977610   \n",
       "6   test_1      mp4.mp4         5   30    640x360  137.217773  0.978833   \n",
       "7   test_1      flv.flv         5   30    640x360  338.509766  0.978290   \n",
       "8   test_1     xvid.avi         5   30    640x360  195.636719  0.955684   \n",
       "9   test_1     divx.avi         5   30    640x360  304.433594  0.977806   \n",
       "\n",
       "         MSE  \n",
       "0   9.317235  \n",
       "1   9.464514  \n",
       "2   9.159744  \n",
       "3  13.598390  \n",
       "4   9.222856  \n",
       "5   8.408090  \n",
       "6   8.688403  \n",
       "7   8.541246  \n",
       "8  12.937765  \n",
       "9   8.539462  "
      ]
     },
     "execution_count": 5,
     "metadata": {},
     "output_type": "execute_result"
    }
   ],
   "source": [
    "df = get_df_info()\n",
    "df.head(10)"
   ]
  },
  {
   "cell_type": "markdown",
   "metadata": {},
   "source": [
    "# Visualisation"
   ]
  },
  {
   "cell_type": "code",
   "execution_count": null,
   "metadata": {},
   "outputs": [],
   "source": []
  },
  {
   "cell_type": "code",
   "execution_count": null,
   "metadata": {},
   "outputs": [],
   "source": []
  }
 ],
 "metadata": {
  "kernelspec": {
   "display_name": "pvenv",
   "language": "python",
   "name": "python3"
  },
  "language_info": {
   "codemirror_mode": {
    "name": "ipython",
    "version": 3
   },
   "file_extension": ".py",
   "mimetype": "text/x-python",
   "name": "python",
   "nbconvert_exporter": "python",
   "pygments_lexer": "ipython3",
   "version": "3.13.2"
  }
 },
 "nbformat": 4,
 "nbformat_minor": 2
}
